Coordinates
nRows=9
nColumns=38

# SIMM Motion File Header:
name Coordinates
datacolumns 38
datarows 9
otherdata 1
range 1.91880000000000010000 1.92680000000000010000

Units are S.I. units (second, meters, Newtons, ...)
Angles are in degrees.

endheader
time	pelvis_tilt	pelvis_list	pelvis_rotation	pelvis_tx	pelvis_ty	pelvis_tz	hip_flexion_r	hip_adduction_r	hip_rotation_r	knee_angle_r	ankle_angle_r	subtalar_angle_r	mtp_angle_r	hip_flexion_l	hip_adduction_l	hip_rotation_l	knee_angle_l	ankle_angle_l	subtalar_angle_l	mtp_angle_l	lumbar_extension	lumbar_bending	lumbar_rotation	arm_flex_r	arm_add_r	arm_rot_r	elbow_flex_r	pro_sup_r	wrist_flex_r	wrist_dev_r	arm_flex_l	arm_add_l	arm_rot_l	elbow_flex_l	pro_sup_l	wrist_flex_l	wrist_dev_l
      1.91880000000000010000	     -4.59954252597970560000	      0.42398560788682155000	     -4.39979060446021110000	      0.94173976633173395000	      0.94607893164312595000	     -0.33144238835461065000	      0.03960210751172827500	      8.90756765445053310000	      9.13810868658007540000	    -28.90035047618285100000	     19.72605830527430700000	      0.00000000000002626500	      0.00000000000004738740	     47.80475670533477500000	     -2.03480891034030750000	     -1.41381745131533740000	   -108.83133100962087000000	      7.35729839106330630000	      0.00000000000000653578	     -0.00000000000001070766	     -8.49724215170553340000	      1.49855234838301830000	      3.61809525422591880000	    -19.74396056973635200000	    -20.21255045351544100000	      2.31497049201577680000	     96.63729381077953900000	    105.23001683024673000000	      0.00000000000000049692	      0.00000000000000765932	    -40.14410163226605700000	    -20.14596970441624200000	      3.82229965892337380000	     95.09183629613126200000	    115.38688025326103000000	      0.00000000000000024620	     -0.00000000000000730880
      1.91980000000000000000	     -4.66554837771470510000	      0.55111770973889374000	     -4.25982340148507090000	      0.94204795840943845000	      0.94663243275321218000	     -0.33153804157839456000	     -0.35319807756593902000	      8.72866514448774740000	      9.09974622763889410000	    -28.45975732222311900000	     19.34339668319026000000	      0.00000000000002659658	      0.00000000000004829005	     48.02824009491408900000	     -1.79179327363154070000	     -1.35874628132583950000	   -108.30986891216116000000	      7.43044480881030630000	      0.00000000000000666402	     -0.00000000000001083682	     -8.35252682829982260000	      1.35261198315144650000	      3.57793220909682750000	    -19.71009123294237500000	    -20.17106422831223300000	      2.33721479257337530000	     96.89749920949597600000	    105.24340008569125000000	      0.00000000000000061858	      0.00000000000000787471	    -40.39452295853350000000	    -20.23675933964776200000	      3.77130241654384110000	     95.25982354436496300000	    115.42511433849890000000	      0.00000000000000013475	     -0.00000000000000751113
      1.92080000000000010000	     -4.73116030675693720000	      0.67978771062881149000	     -4.11866447185447890000	      0.94236275298833649000	      0.94719196149964280000	     -0.33163855995323871000	     -0.74541103534150244000	      8.54791810588953100000	      9.05487208851057450000	    -28.01881136857311800000	     18.94525326084710000000	      0.00000000000002696368	      0.00000000000004923512	     48.24519249403167700000	     -1.54585628151618320000	     -1.30517251933811670000	   -107.78188474460863000000	      7.50291366461432040000	      0.00000000000000680042	     -0.00000000000001098142	     -8.20789089133355350000	      1.20486976013001310000	      3.53520471780293730000	    -19.67831203546727200000	    -20.13109522549747500000	      2.36142982738830160000	     97.15709435172327300000	    105.25987669310736000000	      0.00000000000000073935	      0.00000000000000807071	    -40.64590611012866400000	    -20.32585869816193000000	      3.71781486989119080000	     95.42794731965304300000	    115.46501614710037000000	      0.00000000000000002360	     -0.00000000000000771288
      1.92180000000000000000	     -4.79622990303837770000	      0.80998016654825322000	     -3.97646674475258520000	      0.94268384037951769000	      0.94775758152583967000	     -0.33174392988624418000	     -1.13708093281873150000	      8.36535649336222950000	      9.00353125745837700000	    -27.57769430194563000000	     18.53161699079430100000	      0.00000000000002735366	      0.00000000000005018634	     48.45547615148070300000	     -1.29706681634335590000	     -1.25308970007638680000	   -107.24740279114175000000	      7.57470122234791980000	      0.00000000000000693546	     -0.00000000000001110062	     -8.06358623683478020000	      1.05533979422920750000	      3.49010479184169720000	    -19.64856400869223000000	    -20.09268758350695100000	      2.38757382061722190000	     97.41606517972161300000	    105.27925842288481000000	      0.00000000000000085988	      0.00000000000000825487	    -40.89806009890874300000	    -20.41321100383369100000	      3.66193882847423740000	     95.59608206989231900000	    115.50642843080405000000	     -0.00000000000000009386	     -0.00000000000000791633
      1.92280000000000010000	     -4.86060704171195200000	      0.94168029192514557000	     -3.83338733219970960000	      0.94301091366958234000	      0.94832935916373284000	     -0.33185411983912455000	     -1.52825922439739000000	      8.18100986020137460000	      8.94577724394065580000	    -27.13657688965811900000	     18.10250158515861300000	      0.00000000000002778166	      0.00000000000005108150	     48.65895139661082400000	     -1.04549616085371680000	     -1.20248831962973470000	   -106.70644300315934000000	      7.64580621716620360000	      0.00000000000000706869	     -0.00000000000001120503	     -7.91986516181251600000	      0.90403631811092922000	      3.44283237722028760000	    -19.62079219831404200000	    -20.05588043122262900000	      2.41559642889669530000	     97.67439884409134300000	    105.30134312477109000000	      0.00000000000000097911	      0.00000000000000843029	    -41.15079001764124900000	    -20.49876727254390100000	      3.60378296637712040000	     95.76410798061461100000	    115.54918740060874000000	     -0.00000000000000023205	     -0.00000000000000811942
      1.92380000000000000000	     -4.92414016891026570000	      1.07487348246408930000	     -3.68958555919448770000	      0.94334367042444067000	      0.94890736200765391000	     -0.33196908209916448000	     -1.91900484224373110000	      7.99490799381538060000	      8.88167023591146790000	    -26.69561795239378600000	     17.65794497120148100000	      0.00000000000002825402	      0.00000000000005191471	     48.85547709579895300000	     -0.79121733352732715000	     -1.15335422960212350000	   -106.15902129271569000000	      7.71622964921063390000	      0.00000000000000718789	     -0.00000000000001133171	     -7.77697969963029490000	      0.75097437334443728000	      3.39359321839780080000	    -19.59494558359147500000	    -20.02070779363589600000	      2.44543912365319160000	     97.93208343167035000000	    105.32591564518316000000	      0.00000000000000109764	      0.00000000000000858760	    -41.40389793463563700000	    -20.58248639931199600000	      3.54346223325492460000	     95.93191113340842000000	    115.59312350247626000000	     -0.00000000000000037749	     -0.00000000000000832176
      1.92480000000000010000	     -4.98667687961635500000	      1.20954483553268010000	     -3.54522153391687000000	      0.94368181412461150000	      0.94949165703121008000	     -0.33208875396229154000	     -2.30938396594592370000	      7.80708157072979340000	      8.81127564238059870000	    -26.25496356032988700000	     17.19800757779822600000	      0.00000000000002875776	      0.00000000000005271586	     49.04491135384075300000	     -0.53430485538971628000	     -1.10566738964786770000	   -105.60514984834404000000	      7.78597462022086080000	      0.00000000000000731580	     -0.00000000000001149552	     -7.63518065215895620000	      0.59617045764611354000	      3.34259725236795680000	    -19.57097703727653100000	    -19.98719852437982800000	      2.47703557093657080000	     98.18910768960094500000	    105.35274873901960000000	      0.00000000000000121623	      0.00000000000000873436	    -41.65718379034549900000	    -20.66433520248291700000	      3.48109727755948350000	     96.09938360276075300000	    115.63806221689681000000	     -0.00000000000000050896	     -0.00000000000000852439
      1.92580000000000000000	     -5.04805001017280120000	      1.34567983483333920000	     -3.40045382614085770000	      0.94402505946188098000	      0.95008233163679479000	     -0.33221306014470292000	     -2.69948762117012330000	      7.61756043088615620000	      8.73466226223522390000	    -25.81474163530906600000	     16.72277447860459900000	      0.00000000000002921980	      0.00000000000005355302	     49.22709494777856100000	     -0.27483180411708391000	     -1.05940134439118520000	   -105.04483571515523000000	      7.85504827900430950000	      0.00000000000000744227	     -0.00000000000001165630	     -7.49473312705440440000	      0.43964092184724685000	      3.29005585810689900000	    -19.54884067643455100000	    -19.95537615349971000000	      2.51031203173363200000	     98.44546120361353300000	    105.38160357317506000000	      0.00000000000000133337	      0.00000000000000889005	    -41.91044392113849400000	    -20.74428960633202500000	      3.41681413302427920000	     96.26642501384242200000	    115.68382415720950000000	     -0.00000000000000065200	     -0.00000000000000872645
      1.92680000000000010000	     -5.10805799740153340000	      1.48326605547744170000	     -3.25543757021416670000	      0.94437313900247633000	      0.95067952320544757000	     -0.33234191493603221000	     -3.08945614598642800000	      7.42637041808744590000	      8.65190012221654750000	    -25.37505470379296600000	     16.23235336347355700000	      0.00000000000002967067	      0.00000000000005440461	     49.40182787828928200000	     -0.01286588601443201800	     -1.01452362584048390000	   -104.47807865834189000000	      7.92346474218216560000	      0.00000000000000755192	     -0.00000000000001180727	     -7.35593865538484960000	      0.28139903446688519000	      3.23617915849218420000	    -19.52848815336367800000	    -19.92525870000082500000	      2.54518780374754080000	     98.70113469967459700000	    105.41223018281879000000	      0.00000000000000145087	      0.00000000000000904437	    -42.16346860430128600000	    -20.82233622986963800000	      3.35074398514869150000	     96.43294463700728200000	    115.73022489955048000000	     -0.00000000000000082202	     -0.00000000000000893115
